<svg width="900" height="420" viewBox="0 0 900 420" xmlns="http://www.w3.org/2000/svg">
  <defs>
    <linearGradient id="bg-main" x1="0" y1="0" x2="900" y2="420" gradientUnits="userSpaceOnUse">
      <stop offset="0%" stop-color="#0d1117"/>
      <stop offset="100%" stop-color="#0d1117"/>
    </linearGradient>
    <linearGradient id="left-panel-bg" x1="0" y1="0" x2="1" y2="0">
      <stop offset="0%" stop-color="#111820"/>
      <stop offset="100%" stop-color="#0d1117"/>
    </linearGradient>
    <linearGradient id="header-fade" x1="0" y1="0" x2="1" y2="0">
      <stop offset="0%" stop-color="#39d353"/>
      <stop offset="60%" stop-color="#39d353" stop-opacity="0.2"/>
      <stop offset="100%" stop-color="#39d353" stop-opacity="0"/>
    </linearGradient>
    <linearGradient id="avatar-ring" x1="0" y1="0" x2="1" y2="1">
      <stop offset="0%" stop-color="#39d353"/>
      <stop offset="50%" stop-color="#1a7f37"/>
      <stop offset="100%" stop-color="#39d353" stop-opacity="0.3"/>
    </linearGradient>
    <linearGradient id="tag-grad" x1="0" y1="0" x2="1" y2="0">
      <stop offset="0%" stop-color="#39d353" stop-opacity="0.15"/>
      <stop offset="100%" stop-color="#39d353" stop-opacity="0.05"/>
    </linearGradient>
    <linearGradient id="divider-v" x1="0" y1="0" x2="0" y2="1">
      <stop offset="0%" stop-color="#39d353" stop-opacity="0"/>
      <stop offset="30%" stop-color="#39d353" stop-opacity="0.4"/>
      <stop offset="70%" stop-color="#39d353" stop-opacity="0.4"/>
      <stop offset="100%" stop-color="#39d353" stop-opacity="0"/>
    </linearGradient>
    <linearGradient id="glow-card" x1="0" y1="0" x2="0" y2="1">
      <stop offset="0%" stop-color="#39d353" stop-opacity="0.06"/>
      <stop offset="100%" stop-color="#0d1117" stop-opacity="0"/>
    </linearGradient>
    <filter id="soft-glow">
      <feGaussianBlur stdDeviation="6" result="blur"/>
      <feMerge><feMergeNode in="blur"/><feMergeNode in="SourceGraphic"/></feMerge>
    </filter>
    <filter id="avatar-glow">
      <feGaussianBlur stdDeviation="8" result="blur"/>
      <feMerge><feMergeNode in="blur"/><feMergeNode in="SourceGraphic"/></feMerge>
    </filter>
  </defs>

  <!-- Base background -->
  <rect width="900" height="420" fill="#0d1117" rx="16"/>

  <!-- Subtle dot grid -->
  <g opacity="0.03" fill="#ffffff">
    <circle cx="50" cy="50" r="1"/><circle cx="110" cy="50" r="1"/><circle cx="170" cy="50" r="1"/><circle cx="230" cy="50" r="1"/><circle cx="290" cy="50" r="1"/><circle cx="350" cy="50" r="1"/><circle cx="410" cy="50" r="1"/><circle cx="470" cy="50" r="1"/><circle cx="530" cy="50" r="1"/><circle cx="590" cy="50" r="1"/><circle cx="650" cy="50" r="1"/><circle cx="710" cy="50" r="1"/><circle cx="770" cy="50" r="1"/><circle cx="830" cy="50" r="1"/><circle cx="890" cy="50" r="1"/>
    <circle cx="50" cy="110" r="1"/><circle cx="110" cy="110" r="1"/><circle cx="170" cy="110" r="1"/><circle cx="230" cy="110" r="1"/><circle cx="290" cy="110" r="1"/><circle cx="350" cy="110" r="1"/><circle cx="410" cy="110" r="1"/><circle cx="470" cy="110" r="1"/><circle cx="530" cy="110" r="1"/><circle cx="590" cy="110" r="1"/><circle cx="650" cy="110" r="1"/><circle cx="710" cy="110" r="1"/><circle cx="770" cy="110" r="1"/><circle cx="830" cy="110" r="1"/><circle cx="890" cy="110" r="1"/>
    <circle cx="50" cy="170" r="1"/><circle cx="110" cy="170" r="1"/><circle cx="170" cy="170" r="1"/><circle cx="230" cy="170" r="1"/><circle cx="290" cy="170" r="1"/><circle cx="350" cy="170" r="1"/><circle cx="410" cy="170" r="1"/><circle cx="470" cy="170" r="1"/><circle cx="530" cy="170" r="1"/><circle cx="590" cy="170" r="1"/><circle cx="650" cy="170" r="1"/><circle cx="710" cy="170" r="1"/><circle cx="770" cy="170" r="1"/><circle cx="830" cy="170" r="1"/>
    <circle cx="50" cy="230" r="1"/><circle cx="110" cy="230" r="1"/><circle cx="170" cy="230" r="1"/><circle cx="230" cy="230" r="1"/><circle cx="290" cy="230" r="1"/><circle cx="350" cy="230" r="1"/><circle cx="410" cy="230" r="1"/><circle cx="470" cy="230" r="1"/><circle cx="530" cy="230" r="1"/><circle cx="590" cy="230" r="1"/><circle cx="650" cy="230" r="1"/><circle cx="710" cy="230" r="1"/><circle cx="770" cy="230" r="1"/><circle cx="830" cy="230" r="1"/>
    <circle cx="50" cy="290" r="1"/><circle cx="110" cy="290" r="1"/><circle cx="170" cy="290" r="1"/><circle cx="230" cy="290" r="1"/><circle cx="290" cy="290" r="1"/><circle cx="350" cy="290" r="1"/><circle cx="410" cy="290" r="1"/><circle cx="470" cy="290" r="1"/><circle cx="530" cy="290" r="1"/><circle cx="590" cy="290" r="1"/><circle cx="650" cy="290" r="1"/><circle cx="710" cy="290" r="1"/><circle cx="770" cy="290" r="1"/><circle cx="830" cy="290" r="1"/>
    <circle cx="50" cy="350" r="1"/><circle cx="110" cy="350" r="1"/><circle cx="170" cy="350" r="1"/><circle cx="230" cy="350" r="1"/><circle cx="290" cy="350" r="1"/><circle cx="350" cy="350" r="1"/><circle cx="410" cy="350" r="1"/><circle cx="470" cy="350" r="1"/><circle cx="530" cy="350" r="1"/><circle cx="590" cy="350" r="1"/><circle cx="650" cy="350" r="1"/><circle cx="710" cy="350" r="1"/><circle cx="770" cy="350" r="1"/><circle cx="830" cy="350" r="1"/>
    <circle cx="50" cy="410" r="1"/><circle cx="110" cy="410" r="1"/><circle cx="170" cy="410" r="1"/><circle cx="230" cy="410" r="1"/><circle cx="290" cy="410" r="1"/><circle cx="350" cy="410" r="1"/><circle cx="410" cy="410" r="1"/><circle cx="470" cy="410" r="1"/><circle cx="530" cy="410" r="1"/><circle cx="590" cy="410" r="1"/><circle cx="650" cy="410" r="1"/><circle cx="710" cy="410" r="1"/><circle cx="770" cy="410" r="1"/><circle cx="830" cy="410" r="1"/>
  </g>

  <!-- ═══ LEFT PANEL ═══ -->
  <rect x="0" y="0" width="270" height="420" fill="url(#left-panel-bg)" rx="16"/>
  <rect x="266" y="0" width="4" height="420" fill="#0d1117"/>

  <!-- Avatar glow ring (decorative) -->
  <circle cx="135" cy="118" r="58" fill="none" stroke="url(#avatar-ring)" stroke-width="2" opacity="0.8" filter="url(#avatar-glow)"/>
  <circle cx="135" cy="118" r="54" fill="#161b22" stroke="#21262d" stroke-width="1"/>

  <!-- Avatar initials -->
  <text x="135" y="108" font-family="'Segoe UI', system-ui, sans-serif" font-size="28" font-weight="700" fill="#39d353" text-anchor="middle" letter-spacing="-1">DS</text>
  <text x="135" y="132" font-family="'Courier New', monospace" font-size="10" fill="#39d353" text-anchor="middle" opacity="0.7" letter-spacing="1">DEV</text>

  <!-- Online dot -->
  <circle cx="179" cy="84" r="7" fill="#0d1117"/>
  <circle cx="179" cy="84" r="5" fill="#39d353" filter="url(#soft-glow)"/>

  <!-- Name & role -->
  <text x="135" y="202" font-family="'Segoe UI', system-ui, sans-serif" font-size="16" font-weight="700" fill="#ffffff" text-anchor="middle" letter-spacing="-0.3">Dhusyanth S</text>
  <text x="135" y="220" font-family="'Courier New', monospace" font-size="10" fill="#39d353" text-anchor="middle" letter-spacing="0.5">Full Stack Developer</text>

  <!-- Divider -->
  <line x1="40" y1="234" x2="230" y2="234" stroke="#21262d" stroke-width="0.8"/>

  <!-- Info rows -->
  <!-- Location -->
  <text x="42" y="256" font-family="'Courier New', monospace" font-size="9" fill="#8b949e" letter-spacing="0.3">📍</text>
  <text x="58" y="256" font-family="'Courier New', monospace" font-size="9" fill="#8b949e">Tamil Nadu, India</text>

  <!-- Education -->
  <text x="42" y="274" font-family="'Courier New', monospace" font-size="9" fill="#8b949e" letter-spacing="0.3">🎓</text>
  <text x="58" y="274" font-family="'Courier New', monospace" font-size="9" fill="#8b949e">B.Tech IT · 2023–2027</text>

  <!-- CGPA -->
  <text x="42" y="292" font-family="'Courier New', monospace" font-size="9" fill="#8b949e">⭐</text>
  <text x="58" y="292" font-family="'Courier New', monospace" font-size="9" fill="#8b949e">CGPA: 7.88</text>

  <!-- Experience -->
  <text x="42" y="310" font-family="'Courier New', monospace" font-size="9" fill="#8b949e">💼</text>
  <text x="58" y="310" font-family="'Courier New', monospace" font-size="9" fill="#8b949e">Intern @ Code Kadai</text>
  <text x="58" y="322" font-family="'Courier New', monospace" font-size="9" fill="#8b949e">Solutions · 6 months</text>

  <!-- Divider -->
  <line x1="40" y1="336" x2="230" y2="336" stroke="#21262d" stroke-width="0.8"/>

  <!-- open to label -->
  <text x="42" y="354" font-family="'Courier New', monospace" font-size="9" fill="#39d353" letter-spacing="0.8">OPEN TO</text>
  <!-- tags -->
  <rect x="42" y="360" width="64" height="16" rx="4" fill="url(#tag-grad)" stroke="#39d353" stroke-width="0.6" stroke-opacity="0.5"/>
  <text x="74" y="372" font-family="'Courier New', monospace" font-size="8" fill="#39d353" text-anchor="middle">Full-Time</text>

  <rect x="112" y="360" width="56" height="16" rx="4" fill="url(#tag-grad)" stroke="#39d353" stroke-width="0.6" stroke-opacity="0.5"/>
  <text x="140" y="372" font-family="'Courier New', monospace" font-size="8" fill="#39d353" text-anchor="middle">Internship</text>

  <rect x="42" y="380" width="64" height="16" rx="4" fill="url(#tag-grad)" stroke="#39d353" stroke-width="0.6" stroke-opacity="0.5"/>
  <text x="74" y="392" font-family="'Courier New', monospace" font-size="8" fill="#39d353" text-anchor="middle">Freelance</text>

  <!-- Vertical divider line between panels -->
  <line x1="270" y1="0" x2="270" y2="420" stroke="url(#divider-v)" stroke-width="1"/>

  <!-- ═══ RIGHT PANEL — Code editor ═══ -->

  <!-- Editor top bar -->
  <rect x="270" y="0" width="630" height="42" fill="#161b22" rx="0"/>
  <rect x="270" y="0" width="630" height="42" fill="#161b22"/>
  <!-- top-right radius fix -->
  <rect x="854" y="0" width="16" height="16" fill="#161b22"/>
  <rect x="854" y="0" width="16" height="16" fill="#0d1117" rx="16"/>

  <!-- traffic lights -->
  <circle cx="296" cy="21" r="5" fill="#ff5f57" opacity="0.8"/>
  <circle cx="316" cy="21" r="5" fill="#febc2e" opacity="0.8"/>
  <circle cx="336" cy="21" r="5" fill="#28c840" opacity="0.8"/>

  <!-- tab -->
  <rect x="356" y="10" width="120" height="24" rx="6" fill="#0d1117" stroke="#30363d" stroke-width="0.5"/>
  <text x="416" y="26" font-family="'Courier New', monospace" font-size="10" fill="#8b949e" text-anchor="middle">dhusyanth.ts</text>

  <!-- top accent line -->
  <rect x="356" y="10" width="120" height="2" rx="1" fill="#39d353" opacity="0.8"/>

  <!-- language badge -->
  <rect x="810" y="13" width="74" height="17" rx="4" fill="#39d353" fill-opacity="0.1" stroke="#39d353" stroke-width="0.6" stroke-opacity="0.4"/>
  <text x="847" y="25" font-family="'Courier New', monospace" font-size="9" fill="#39d353" text-anchor="middle" letter-spacing="0.5">TypeScript</text>

  <!-- Editor body -->
  <rect x="270" y="42" width="630" height="378" fill="#0d1117"/>

  <!-- top glow wash -->
  <rect x="270" y="42" width="630" height="80" fill="url(#glow-card)"/>

  <!-- line numbers bg -->
  <rect x="270" y="42" width="42" height="378" fill="#0d1117" opacity="0.5"/>

  <!-- Section header inside editor -->
  <rect x="286" y="20" width="4" height="0" rx="2" fill="#39d353"/>

  <!-- ── WHO AM I header ── -->
  <rect x="284" y="56" width="4" height="28" rx="2" fill="#39d353"/>
  <text x="300" y="66" font-family="'Segoe UI', system-ui, sans-serif" font-size="14" font-weight="700" fill="#ffffff" letter-spacing="-0.2">◈ Who Am I</text>
  <line x1="300" y1="74" x2="870" y2="74" stroke="url(#header-fade)" stroke-width="0.7"/>

  <!-- Line numbers -->
  <g font-family="'Courier New', monospace" font-size="11" fill="#3d4451" text-anchor="middle">
    <text x="292" y="106">1</text>
    <text x="292" y="124">2</text>
    <text x="292" y="142">3</text>
    <text x="292" y="160">4</text>
    <text x="292" y="178">5</text>
    <text x="292" y="196">6</text>
    <text x="292" y="214">7</text>
    <text x="292" y="232">8</text>
    <text x="292" y="250">9</text>
    <text x="292" y="268">10</text>
    <text x="292" y="286">11</text>
    <text x="292" y="304">12</text>
    <text x="292" y="322">13</text>
    <text x="292" y="340">14</text>
    <text x="292" y="358">15</text>
  </g>

  <!-- Active line highlight (line 1) -->
  <rect x="312" y="94" width="568" height="18" rx="3" fill="#39d353" fill-opacity="0.04"/>

  <!-- ── CODE ── -->
  <g font-family="'Courier New', monospace" font-size="12">

    <!-- line 1: const dhusyanth = { -->
    <text x="320" y="107" fill="#c792ea">const </text>
    <text x="368" y="107" fill="#82aaff">dhusyanth </text>
    <text x="444" y="107" fill="#89ddff">= </text>
    <text x="460" y="107" fill="#c9d1d9">{</text>

    <!-- line 2 -->
    <text x="320" y="125" fill="#8b949e">  name        </text>
    <text x="440" y="125" fill="#89ddff">: </text>
    <text x="454" y="125" fill="#9be585">"Dhusyanth S"</text>
    <text x="558" y="125" fill="#6e7681">,</text>

    <!-- line 3 -->
    <text x="320" y="143" fill="#8b949e">  role        </text>
    <text x="440" y="143" fill="#89ddff">: </text>
    <text x="454" y="143" fill="#9be585">"Full Stack Developer (MERN)"</text>
    <text x="706" y="143" fill="#6e7681">,</text>

    <!-- line 4 -->
    <text x="320" y="161" fill="#8b949e">  location    </text>
    <text x="440" y="161" fill="#89ddff">: </text>
    <text x="454" y="161" fill="#9be585">"Tamil Nadu, India 🇮🇳"</text>
    <text x="654" y="161" fill="#6e7681">,</text>

    <!-- line 5 -->
    <text x="320" y="179" fill="#8b949e">  education   </text>
    <text x="440" y="179" fill="#89ddff">: </text>
    <text x="454" y="179" fill="#9be585">"B.Tech IT @ Sri Eshwar (2023–2027)"</text>
    <text x="746" y="179" fill="#6e7681">,</text>

    <!-- line 6 -->
    <text x="320" y="197" fill="#8b949e">  cgpa        </text>
    <text x="440" y="197" fill="#89ddff">: </text>
    <text x="454" y="197" fill="#f78c6c">7.88</text>
    <text x="486" y="197" fill="#6e7681">,</text>

    <!-- line 7 -->
    <text x="320" y="215" fill="#8b949e">  experience  </text>
    <text x="440" y="215" fill="#89ddff">: </text>
    <text x="454" y="215" fill="#9be585">"Full Stack Intern @ Code Kadai"</text>
    <text x="714" y="215" fill="#6e7681">,</text>

    <!-- line 8 -->
    <text x="320" y="233" fill="#8b949e">  focus       </text>
    <text x="440" y="233" fill="#89ddff">: </text>
    <text x="454" y="233" fill="#c9d1d9">[</text>
    <text x="464" y="233" fill="#9be585">"Scalable Web Apps"</text>
    <text x="588" y="233" fill="#c9d1d9">, </text>
    <text x="600" y="233" fill="#9be585">"REST APIs"</text>
    <text x="672" y="233" fill="#c9d1d9">]</text>
    <text x="680" y="233" fill="#6e7681">,</text>

    <!-- line 9 -->
    <text x="320" y="251" fill="#8b949e">  currentlyOn </text>
    <text x="440" y="251" fill="#89ddff">: </text>
    <text x="454" y="251" fill="#9be585">"Building production-grade MERN apps"</text>
    <text x="748" y="251" fill="#6e7681">,</text>

    <!-- line 10 -->
    <text x="320" y="269" fill="#8b949e">  openTo      </text>
    <text x="440" y="269" fill="#89ddff">: </text>
    <text x="454" y="269" fill="#c9d1d9">[</text>
    <text x="464" y="269" fill="#9be585">"Full-Time"</text>
    <text x="534" y="269" fill="#c9d1d9">, </text>
    <text x="546" y="269" fill="#9be585">"Internships"</text>
    <text x="626" y="269" fill="#c9d1d9">, </text>
    <text x="638" y="269" fill="#9be585">"Freelance"</text>
    <text x="706" y="269" fill="#c9d1d9">]</text>
    <text x="714" y="269" fill="#6e7681">,</text>

    <!-- line 11 closing brace -->
    <text x="320" y="287" fill="#c9d1d9">};</text>

  </g>

  <!-- cursor blink on line 11 -->
  <rect x="337" y="276" width="2" height="14" rx="1" fill="#39d353" opacity="0.85"/>

  <!-- ── Status bar ── -->
  <rect x="270" y="388" width="630" height="32" fill="#161b22"/>
  <rect x="270" y="388" width="630" height="1" fill="#21262d"/>

  <!-- status items -->
  <circle cx="290" cy="404" r="4" fill="#39d353"/>
  <text x="300" y="408" font-family="'Courier New', monospace" font-size="9" fill="#8b949e" letter-spacing="0.3">main</text>

  <text x="340" y="408" font-family="'Courier New', monospace" font-size="9" fill="#3d4451">|</text>

  <text x="352" y="408" font-family="'Courier New', monospace" font-size="9" fill="#8b949e">TypeScript</text>

  <text x="416" y="408" font-family="'Courier New', monospace" font-size="9" fill="#3d4451">|</text>

  <text x="428" y="408" font-family="'Courier New', monospace" font-size="9" fill="#8b949e">UTF-8</text>

  <!-- right status -->
  <text x="700" y="408" font-family="'Courier New', monospace" font-size="9" fill="#8b949e">Ln 11, Col 3</text>

  <text x="784" y="408" font-family="'Courier New', monospace" font-size="9" fill="#3d4451">|</text>

  <rect x="796" y="396" width="86" height="16" rx="3" fill="#39d353" fill-opacity="0.12" stroke="#39d353" stroke-opacity="0.3" stroke-width="0.5"/>
  <text x="839" y="408" font-family="'Courier New', monospace" font-size="9" fill="#39d353" text-anchor="middle" letter-spacing="0.3">Available ✓</text>

  <!-- outer border -->
  <rect width="900" height="420" fill="none" stroke="#21262d" stroke-width="1" rx="16"/>
  <!-- top green accent -->
  <rect x="16" y="0" width="100" height="2" rx="1" fill="#39d353" opacity="0.7"/>

</svg>
